<svg xmlns="http://www.w3.org/2000/svg" width="168.545" height="21.651" viewBox="0 0 168.545 21.651">
  <g id="Group_263" data-name="Group 263" transform="translate(-988.136 -628.659)">
    <path id="Path_839" data-name="Path 839" d="M1013.612,642.667a7.647,7.647,0,0,1-9.643,7.378,6.852,6.852,0,0,0,3.583-7.606l-6.678-6.123-6.676,6.12a6.758,6.758,0,0,0-.167,1.5,6.843,6.843,0,0,0,3.748,6.1,7.647,7.647,0,0,1-9.1-10.208h0l12.2-11.178,12.2,11.184A7.631,7.631,0,0,1,1013.612,642.667Z"/>
    <path id="Path_840" data-name="Path 840" d="M1183.517,661.649h-1.986a2.151,2.151,0,0,0-1.884,1.186l-7.473,14.174h3.941l1.535-2.974h9.693l1.577,2.974h3.835l-7.349-14.161A2.151,2.151,0,0,0,1183.517,661.649Zm-1.017,3.911h0a.848.848,0,0,1,.754.477l2.733,5.232h-6.944l2.7-5.229A.849.849,0,0,1,1182.5,665.56Z" transform="translate(-148.936 -26.7)"/>
    <path id="Path_841" data-name="Path 841" d="M1754.183,662.849a2.15,2.15,0,0,0-1.891-1.2h-1.987a2.152,2.152,0,0,0-1.884,1.186l-7.474,14.174h3.942l1.535-2.974h9.7l1.576,2.974h3.835Zm.582,8.421h-6.945l2.7-5.229a.849.849,0,0,1,.754-.481h0a.847.847,0,0,1,.754.477Z" transform="translate(-609.227 -26.7)"/>
    <path id="Path_842" data-name="Path 842" d="M1279.393,664.8h4.467v12.212h3.5V664.8h7.233a3.032,3.032,0,0,0-2.9-3.148h-15.2a3.031,3.031,0,0,0,2.9,3.148Z" transform="translate(-233.359 -26.7)"/>
    <path id="Path_843" data-name="Path 843" d="M1411.676,667.616h-10.605v-5.971h-3.5v15.36h3.5v-6.263h10.605v6.263h3.5V661.648h-3.5Z" transform="translate(-331.343 -26.699)"/>
    <path id="Path_844" data-name="Path 844" d="M1520.613,670.543h10.994v-2.7h-10.994v-3.23h11.553v-2.968h-15.012v12.27a2.976,2.976,0,0,0,2.845,3.091h12.292v-2.968h-10.706a1.017,1.017,0,0,1-.972-1.056Z" transform="translate(-428.118 -26.7)"/>
    <path id="Path_845" data-name="Path 845" d="M1640.459,673.886l-9-10.829a3.8,3.8,0,0,0-2.916-1.408h-3.43v15.36h3.4l-.061-12.169,8.933,10.76a3.8,3.8,0,0,0,2.917,1.409h3.452v-15.36h-3.359Z" transform="translate(-515.485 -26.7)"/>
    <path id="Path_846" data-name="Path 846" d="M1851.113,661.665a2.188,2.188,0,1,0,2.176,2.177,2.128,2.128,0,0,0-2.175-2.177Zm.654,1.787c0,.4-.357.455-.572.455h-.512v-.9h.512c.214,0,.572.055.572.44Zm0,.791a.827.827,0,0,0,.487-.791c0-.54-.407-.888-1.039-.888H1850.2v2.584h.492v-.8h.613l.512.8h.522a1.789,1.789,0,1,1,.543-1.3,1.8,1.8,0,0,1-.532,1.293Z" transform="translate(-696.609 -26.712)"/>
  </g>
</svg>
