<svg xmlns="http://www.w3.org/2000/svg" xmlns:xlink="http://www.w3.org/1999/xlink" fill="none" version="1.1" width="165" height="30" viewBox="0 0 165 30"><defs><clipPath id="master_svg0_1_4230"><rect x="0" y="0" width="165" height="30" rx="0"/></clipPath></defs><g><g clip-path="url(#master_svg0_1_4230)"><g><g><path d="M130.20801811523438,15.55004062652588C130.20801811523438,15.55004062652588,130.5900181152344,15.55004062652588,130.5900181152344,15.55004062652588C131.4034181152344,15.55004062652588,132.57421811523437,15.425010626525879,133.42461811523438,15.075020626525879C134.22581811523438,14.75005062652588,134.82961811523438,14.237530626525878,135.19941811523438,13.57504062652588C135.3349181152344,13.287540626525878,135.44581811523437,13.000040626525879,135.53211811523437,12.67504062652588C135.61841811523436,12.350040626525878,135.65541811523437,12.000040626525879,135.65541811523437,11.63754062652588C135.65541811523437,11.275040626525879,135.61841811523436,10.95004062652588,135.54441811523438,10.63754062652588C135.47051811523437,10.32504062652588,135.35961811523438,10.037540626525878,135.22401811523437,9.775040626525879C135.22401811523437,9.775040626525879,135.22401811523437,9.750040626525879,135.22401811523437,9.750040626525879C134.86661811523436,9.162540626525878,134.34901811523437,8.700039626525879,133.68351811523436,8.375040626525879C132.96861811523436,8.02503962652588,131.9950181152344,7.900040626525879,131.37881811523437,7.900040626525879C131.37881811523437,7.900040626525879,118.84481811523438,7.900040626525879,118.84481811523438,7.900040626525879C118.84481811523438,7.900040626525879,118.84481811523438,20.75004062652588,118.84481811523438,20.75004062652588C118.84481811523438,20.75004062652588,122.12311811523438,20.75004062652588,122.12311811523438,20.75004062652588C122.12311811523438,20.75004062652588,122.12311811523438,10.525040626525879,122.12311811523438,10.525040626525879C122.12311811523438,10.525040626525879,130.77491811523439,10.525040626525879,130.77491811523439,10.525040626525879C131.15701811523437,10.525040626525879,131.46511811523436,10.587540626525879,131.71151811523438,10.70004062652588C131.93341811523436,10.80004062652588,132.09361811523436,10.937540626525879,132.21691811523436,11.11254062652588C132.25381811523437,11.187540626525879,132.27851811523436,11.275040626525879,132.30311811523438,11.375040626525879C132.32781811523438,11.48754062652588,132.34011811523436,11.61254062652588,132.34011811523436,11.73754062652588C132.34011811523436,11.86254062652588,132.34011811523436,11.98754062652588,132.30311811523438,12.087540626525879C132.29081811523437,12.17504062652588,132.25381811523437,12.26254062652588,132.21691811523436,12.36254062652588C132.08131811523438,12.55004062652588,131.92101811523438,12.70004062652588,131.69921811523437,12.80004062652588C131.46511811523436,12.912540626525878,131.15701811523437,12.975040626525878,130.77491811523439,12.975040626525878C130.77491811523439,12.975040626525878,122.83794811523437,12.975040626525878,122.83794811523437,12.975040626525878C122.83794811523437,12.975040626525878,124.39082811523437,14.362560626525879,124.39082811523437,14.362560626525879C124.39082811523437,14.362560626525879,124.60033811523438,14.550030626525878,124.60033811523438,14.550030626525878C124.60033811523438,14.550030626525878,125.77116811523437,15.60001062652588,125.77116811523437,15.60001062652588C125.77116811523437,15.60001062652588,125.82043811523438,15.60001062652588,125.82043811523438,15.60001062652588C125.82043811523438,15.60001062652588,131.83481811523438,20.76254062652588,131.83481811523438,20.76254062652588C131.83481811523438,20.76254062652588,136.48111811523438,20.76254062652588,136.48111811523438,20.76254062652588C136.48111811523438,20.76254062652588,130.19571811523437,15.56252062652588,130.19571811523437,15.56252062652588C130.19571811523437,15.56252062652588,130.20801811523438,15.55004062652588,130.20801811523438,15.55004062652588C130.20801811523438,15.55004062652588,130.20801811523438,15.55004062652588,130.20801811523438,15.55004062652588Z" fill="#521BDB" fill-opacity="1"/></g><g><path d="M69.17724343261719,17.999991798400877C69.17724343261719,17.999991798400877,61.33888343261719,7.912491798400879,61.33888343261719,7.912491798400879C61.33888343261719,7.912491798400879,57.03764343261719,7.912491798400879,57.03764343261719,7.912491798400879C57.03764343261719,7.912491798400879,57.03764343261719,20.72499179840088,57.03764343261719,20.72499179840088C57.03764343261719,20.72499179840088,60.21735343261719,20.72499179840088,60.21735343261719,20.72499179840088C60.21735343261719,20.72499179840088,60.21735343261719,11.262491798400879,60.21735343261719,11.262491798400879C60.21735343261719,11.262491798400879,67.59974343261719,20.72499179840088,67.59974343261719,20.72499179840088C67.59974343261719,20.72499179840088,70.70554343261719,20.72499179840088,70.70554343261719,20.72499179840088C70.70554343261719,20.72499179840088,78.08784343261719,11.33749179840088,78.08784343261719,11.33749179840088C78.08784343261719,11.33749179840088,78.08784343261719,20.72499179840088,78.08784343261719,20.72499179840088C78.08784343261719,20.72499179840088,81.26754343261719,20.72499179840088,81.26754343261719,20.72499179840088C81.26754343261719,20.72499179840088,81.26754343261719,7.912491798400879,81.26754343261719,7.912491798400879C81.26754343261719,7.912491798400879,76.96634343261718,7.912491798400879,76.96634343261718,7.912491798400879C76.96634343261718,7.912491798400879,69.17724343261719,17.999991798400877,69.17724343261719,17.999991798400877C69.17724343261719,17.999991798400877,69.17724343261719,17.999991798400877,69.17724343261719,17.999991798400877Z" fill="#521BDB" fill-opacity="1"/></g><g><path d="M98.63272094726562,10.512491798400879C98.63272094726562,10.512491798400879,106.37250094726562,10.512491798400879,106.37250094726562,10.512491798400879C106.37250094726562,10.512491798400879,106.37250094726562,20.749991798400877,106.37250094726562,20.749991798400877C106.37250094726562,20.749991798400877,109.57682094726563,20.749991798400877,109.57682094726563,20.749991798400877C109.57682094726563,20.749991798400877,109.57682094726563,10.512491798400879,109.57682094726563,10.512491798400879C109.57682094726563,10.512491798400879,117.27972094726562,10.512491798400879,117.27972094726562,10.512491798400879C117.27972094726562,10.512491798400879,117.27972094726562,7.912491798400879,117.27972094726562,7.912491798400879C117.27972094726562,7.912491798400879,98.63272094726562,7.912491798400879,98.63272094726562,7.912491798400879C98.63272094726562,7.912491798400879,98.63272094726562,10.512491798400879,98.63272094726562,10.512491798400879C98.63272094726562,10.512491798400879,98.63272094726562,10.512491798400879,98.63272094726562,10.512491798400879Z" fill="#521BDB" fill-opacity="1"/></g><g><path d="M141.47245782226562,7.912491798400879C141.47245782226562,7.912491798400879,138.25576782226562,7.912491798400879,138.25576782226562,7.912491798400879C138.25576782226562,7.912491798400879,138.25576782226562,20.749991798400877,138.25576782226562,20.749991798400877C138.25576782226562,20.749991798400877,141.47245782226562,20.749991798400877,141.47245782226562,20.749991798400877C141.47245782226562,20.749991798400877,141.47245782226562,7.912491798400879,141.47245782226562,7.912491798400879C141.47245782226562,7.912491798400879,141.47245782226562,7.912491798400879,141.47245782226562,7.912491798400879Z" fill="#521BDB" fill-opacity="1"/></g><g><path d="M90.74504856445313,7.924942970275879C90.74504856445313,7.924942970275879,81.76052856445312,20.72494297027588,81.76052856445312,20.72494297027588C81.76052856445312,20.72494297027588,85.66738856445312,20.72494297027588,85.66738856445312,20.72494297027588C85.66738856445312,20.72494297027588,92.71692856445313,10.237442970275879,92.71692856445313,10.237442970275879C92.71692856445313,10.237442970275879,99.76662856445313,20.72494297027588,99.76662856445313,20.72494297027588C99.76662856445313,20.72494297027588,103.67342856445313,20.72494297027588,103.67342856445313,20.72494297027588C103.67342856445313,20.72494297027588,94.67662856445313,7.924942970275879,94.67662856445313,7.924942970275879C94.67662856445313,7.924942970275879,90.74504856445313,7.924942970275879,90.74504856445313,7.924942970275879C90.74504856445313,7.924942970275879,90.74504856445313,7.924942970275879,90.74504856445313,7.924942970275879Z" fill="#521BDB" fill-opacity="1"/></g><g><path d="M165.00002653808593,7.900040626525879C165.00002653808593,7.900040626525879,160.14412653808594,7.900040626525879,160.14412653808594,7.900040626525879C160.14412653808594,7.900040626525879,153.99422653808594,12.67504062652588,153.99422653808594,12.67504062652588C153.99422653808594,12.67504062652588,147.94296653808593,7.900040626525879,147.94296653808593,7.900040626525879C147.94296653808593,7.900040626525879,143.03782653808594,7.900040626525879,143.03782653808594,7.900040626525879C143.03782653808594,7.900040626525879,151.36915653808595,14.26255062652588,151.36915653808595,14.26255062652588C151.36915653808595,14.26255062652588,143.06248073808592,20.71254062652588,143.06248073808592,20.71254062652588C143.06248073808592,20.71254062652588,148.05388653808595,20.71254062652588,148.05388653808595,20.71254062652588C148.05388653808595,20.71254062652588,153.99422653808594,15.90003062652588,153.99422653808594,15.90003062652588C153.99422653808594,15.90003062652588,160.02092653808594,20.71254062652588,160.02092653808594,20.71254062652588C160.02092653808594,20.71254062652588,164.98772653808595,20.71254062652588,164.98772653808595,20.71254062652588C164.98772653808595,20.71254062652588,156.63172653808593,14.26255062652588,156.63172653808593,14.26255062652588C156.63172653808593,14.26255062652588,165.00002653808593,7.900040626525879,165.00002653808593,7.900040626525879C165.00002653808593,7.900040626525879,165.00002653808593,7.900040626525879,165.00002653808593,7.900040626525879Z" fill="#521BDB" fill-opacity="1"/></g></g><g><g><path d="M49.4704,30.00009765625C49.4704,30.00009765625,36.2586,5.03759765625,36.2586,5.03759765625C36.2586,5.03759765625,26.5469,5.03759765625,26.5469,5.03759765625C26.5469,5.03759765625,24.8955,8.16259765625,24.8955,8.16259765625C24.8955,8.16259765625,23.2439,5.03759765625,23.2439,5.03759765625C23.2439,5.03759765625,13.2242,5.03759765625,13.2242,5.03759765625C13.2242,5.03759765625,0,30.00009765625,0,30.00009765625C0,30.00009765625,14.8633,30.00009765625,14.8633,30.00009765625C14.8633,30.00009765625,18.1539,23.80009765625,18.1539,23.80009765625C18.1539,23.80009765625,18.1539,30.00009765625,18.1539,30.00009765625C18.1539,30.00009765625,31.3658,30.00009765625,31.3658,30.00009765625C31.3658,30.00009765625,31.3658,23.28759765625,31.3658,23.28759765625C31.3658,23.28759765625,34.9276,30.00009765625,34.9276,30.00009765625C34.9276,30.00009765625,49.4827,30.00009765625,49.4827,30.00009765625C49.4827,30.00009765625,49.4704,30.00009765625,49.4704,30.00009765625C49.4704,30.00009765625,49.4704,30.00009765625,49.4704,30.00009765625ZM27.348,6.41259765625C27.348,6.41259765625,30.0101,6.41259765625,30.0101,6.41259765625C30.0101,6.41259765625,30.0101,17.82509765625,30.0101,17.82509765625C30.0101,17.82509765625,25.6595,9.61259765625,25.6595,9.61259765625C25.6595,9.61259765625,27.348,6.41259765625,27.348,6.41259765625C27.348,6.41259765625,27.348,6.41259765625,27.348,6.41259765625ZM22.4305,6.41259765625C22.4305,6.41259765625,24.119,9.61259765625,24.119,9.61259765625C24.119,9.61259765625,19.4973,18.33759765625,19.4973,18.33759765625C19.4973,18.33759765625,19.4973,6.41259765625,19.4973,6.41259765625C19.4973,6.41259765625,22.4305,6.41259765625,22.4305,6.41259765625C22.4305,6.41259765625,22.4305,6.41259765625,22.4305,6.41259765625ZM14.0499,28.62509765625C14.0499,28.62509765625,2.25538,28.62509765625,2.25538,28.62509765625C2.25538,28.62509765625,14.0129,6.41259765625,14.0129,6.41259765625C14.0129,6.41259765625,18.1416,6.41259765625,18.1416,6.41259765625C18.1416,6.41259765625,18.1416,20.88759765625,18.1416,20.88759765625C18.1416,20.88759765625,14.0499,28.61259765625,14.0499,28.61259765625C14.0499,28.61259765625,14.0499,28.62509765625,14.0499,28.62509765625C14.0499,28.62509765625,14.0499,28.62509765625,14.0499,28.62509765625ZM30.0101,28.62509765625C30.0101,28.62509765625,19.5097,28.62509765625,19.5097,28.62509765625C19.5097,28.62509765625,19.5097,21.23759765625,19.5097,21.23759765625C19.5097,21.23759765625,24.8955,11.06259765625,24.8955,11.06259765625C24.8955,11.06259765625,30.0101,20.72509765625,30.0101,20.72509765625C30.0101,20.72509765625,30.0101,28.62509765625,30.0101,28.62509765625C30.0101,28.62509765625,30.0101,28.62509765625,30.0101,28.62509765625ZM31.3535,6.41259765625C31.3535,6.41259765625,35.4452,6.41259765625,35.4452,6.41259765625C35.4452,6.41259765625,47.2027,28.62509765625,47.2027,28.62509765625C47.2027,28.62509765625,35.7163,28.62509765625,35.7163,28.62509765625C35.7163,28.62509765625,31.3535,20.38759765625,31.3535,20.38759765625C31.3535,20.38759765625,31.3535,6.41259765625,31.3535,6.41259765625C31.3535,6.41259765625,31.3535,6.41259765625,31.3535,6.41259765625Z" fill="#521BDB" fill-opacity="1"/></g><g><path d="M35.321931286621094,2.875C35.321931286621094,2.875,33.79363128662109,0,33.79363128662109,0C33.79363128662109,0,15.664371286621094,0,15.664371286621094,0C15.664371286621094,0,14.136131286621094,2.875,14.136131286621094,2.875C14.136131286621094,2.875,35.321931286621094,2.875,35.321931286621094,2.875C35.321931286621094,2.875,35.321931286621094,2.875,35.321931286621094,2.875Z" fill="#521BDB" fill-opacity="1"/></g></g></g></g></svg>